<?xml version="1.0" encoding="UTF-8"?>
<svg width="200" height="200" viewBox="0 0 200 200" version="1.1" xmlns="http://www.w3.org/2000/svg">
  <g fill="currentColor">
    <!-- Network Graph Circle -->
    <circle cx="100" cy="80" r="60" fill="none" stroke="currentColor" stroke-width="2"/>
    
    <!-- Network Nodes -->
    <circle cx="100" cy="50" r="6"/>
    <circle cx="70" cy="70" r="6"/>
    <circle cx="130" cy="70" r="6"/>
    <circle cx="85" cy="100" r="6"/>
    <circle cx="115" cy="100" r="6"/>
    <circle cx="100" cy="80" r="6"/>
    
    <!-- Network Connections -->
    <line x1="100" y1="50" x2="70" y2="70" stroke="currentColor" stroke-width="2"/>
    <line x1="100" y1="50" x2="130" y2="70" stroke="currentColor" stroke-width="2"/>
    <line x1="70" y1="70" x2="85" y2="100" stroke="currentColor" stroke-width="2"/>
    <line x1="130" y1="70" x2="115" y2="100" stroke="currentColor" stroke-width="2"/>
    <line x1="85" y1="100" x2="115" y2="100" stroke="currentColor" stroke-width="2"/>
    <line x1="100" y1="80" x2="85" y2="100" stroke="currentColor" stroke-width="2"/>
    <line x1="100" y1="80" x2="115" y2="100" stroke="currentColor" stroke-width="2"/>
    <line x1="100" y1="80" x2="70" y2="70" stroke="currentColor" stroke-width="2"/>
    <line x1="100" y1="80" x2="130" y2="70" stroke="currentColor" stroke-width="2"/>
    
    <!-- Text -->
    <text x="100" y="160" text-anchor="middle" font-family="Arial Black, sans-serif" font-size="24" font-weight="bold">ALGO</text>
    <text x="100" y="180" text-anchor="middle" font-family="Arial, sans-serif" font-size="14">SKETCH</text>
  </g>
</svg>